<?xml version="1.0" encoding="UTF-8"?>
<svg viewBox="0 0 197 103" version="1.1" xmlns="http://www.w3.org/2000/svg" xmlns:xlink="http://www.w3.org/1999/xlink">
    <g id="Symbols" stroke="none" stroke-width="1" fill="none" fill-rule="evenodd">
        <g id="Footer" transform="translate(-250.000000, -123.000000)" fill="#FFFEFF">
            <g id="Group-18">
                <path d="M334.990654,184.606794 C334.650801,185.100888 334.198535,185.49564 333.746269,185.890392 C332.614951,187.047199 331.48494,188.09094 329.787636,188.299427 C325.150604,189.094813 328.317772,180.902397 329.109237,178.995299 L332.841737,169.262434 L336.121318,160.715786 C336.121318,160.60272 336.234385,160.249796 336.234385,160.023663 L341.211923,147.083762 C342.002735,144.385199 344.152304,143.216628 346.075088,143.206825 C346.753486,143.236889 347.658672,143.578049 348.224004,144.18717 C349.355322,145.518478 351.051319,149.042492 352.069571,151.632563 C348.675616,162.115065 341.437402,177.141793 334.990654,184.606794 L334.990654,184.606794 Z M278.891392,219.884182 C277.87314,221.027264 276.629409,221.744877 275.498744,221.657953 C271.540111,221.352739 273.236108,216.27978 274.819692,214.163542 C276.403276,211.819864 280.927241,208.436366 285.564927,205.831263 L285.79106,205.690747 C284.546675,208.784062 281.380161,216.637933 278.891392,219.884182 L278.891392,219.884182 Z M264.413657,178.229323 L268.259223,167.691268 C271.538804,161.067403 275.498091,154.813456 279.90899,151.444337 C283.980689,148.229459 285.451207,149.745726 285.22442,153.619396 C284.772154,157.746648 282.397105,162.901302 280.248189,167.350108 C277.533287,172.773376 275.158238,178.38095 271.425738,183.249996 C268.824556,186.50997 265.544321,189.740534 261.811821,191.556133 C261.811821,188.162832 262.830073,183.514036 264.413657,178.229323 L264.413657,178.229323 Z M442.779586,154.745485 C441.874401,156.666308 440.743736,158.61458 439.499351,160.464164 C438.028834,162.906531 436.219117,165.278312 434.410054,167.423307 C432.487271,169.808159 425.360816,177.356162 423.32562,177.945676 C422.194302,178.197298 421.402836,177.61628 422.081235,175.835974 C424.456938,169.663068 426.831333,163.489509 429.09397,157.444048 L438.1419,133.711857 C438.934019,131.692346 438.254967,129.174166 437.011236,128.082716 C430.451421,122.328091 416.991938,136.87445 411.44972,141.401029 C412.694105,138.193994 414.616888,133.773292 412.015053,131.264916 C408.395619,127.863772 403.192601,130.878006 398.66929,134.373916 C394.257737,137.856102 388.602454,141.717354 385.435939,145.725658 C386.792737,142.053285 389.394572,137.32214 386.227404,134.43143 C382.607971,130.91722 376.048156,134.663445 372.654855,138.133866 C375.48217,138.012957 374.916837,141.248749 374.351505,143.014677 C370.471953,153.443587 366.655143,163.864001 362.807616,174.288336 C362.509591,174.666749 362.210259,175.044509 361.90962,175.420308 C360.665235,176.930039 359.194718,178.807073 357.724854,180.457974 C356.254337,182.221941 354.557686,184.014012 352.634903,185.155133 C350.2592,186.464221 350.82584,184.924426 351.390518,183.158497 C353.313302,177.267278 355.462218,171.687154 357.837921,166.193301 L361.683487,157.577375 C361.796554,156.884598 361.90962,156.305541 362.248819,155.472248 C363.832403,151.318853 365.302921,147.179836 366.886505,143.140161 C367.791036,141.106272 366.999571,138.488751 365.755187,137.284234 C362.814152,134.478486 357.950333,136.319574 354.557686,138.885464 C353.766221,139.435111 353.087169,140.197166 352.521836,140.605643 C352.40877,140.733087 352.295703,140.859225 352.182637,140.98667 C352.974102,140.889289 353.653155,141.145486 353.9917,141.66899 C354.218487,142.093806 354.331553,142.419281 354.331553,142.871547 C354.331553,143.776732 354.10542,144.822433 353.878634,145.868135 C353.766221,145.994926 353.766221,146.334125 353.653155,146.574637 C351.503585,142.087924 349.128536,137.742382 343.247119,137.899237 C337.026503,138.323399 331.37122,142.636917 328.656971,148.738585 C328.656971,148.738585 318.250936,176.935267 317.346404,180.665807 C317.243795,181.058599 317.150335,181.462501 317.063411,181.872938 C313.304769,186.791002 308.620027,190.881655 302.869977,193.52728 L326.510669,130.712655 C327.415201,128.565045 326.623736,125.722045 325.153218,124.432564 C321.420718,120.818359 314.408637,124.733857 311.015336,128.543478 C313.843305,128.422569 313.503452,131.630911 312.825053,133.411218 C308.1658,145.890356 299.426351,169.178124 292.881568,186.68055 C286.89166,193.673678 279.114257,199.142042 270.295073,200.015203 L270.860405,199.945925 C266.562573,200.925617 262.943139,200.352442 262.490873,197.467613 C272.217856,192.766532 281.039654,184.557777 287.26027,175.424229 L292.916207,165.003162 C294.386071,161.429477 295.856589,157.516594 296.987907,153.531818 C298.79697,145.732193 291.671823,144.344678 284.885221,145.177972 C267.91937,147.487665 257.740775,161.178509 252.197905,177.128069 C247.33474,191.976374 249.710442,205.370501 267.806958,204.392117 C275.483059,204.009128 283.609465,199.555748 290.192155,193.87759 C289.233378,196.446094 288.359564,198.790425 287.600777,200.83085 C281.60564,204.168598 276.29021,207.42269 272.670776,210.807494 C266.563227,216.647083 266.676293,227.038739 276.742475,225.915918 C279.909643,225.640768 285.451207,223.150038 290.201959,217.590174 C295.065123,212.129653 298.458424,204.926731 301.059606,198.16039 C307.084153,195.41281 312.224429,192.080944 316.515072,187.804026 C316.723559,193.310297 319.244352,198.006149 326.508055,196.167022 C331.145087,194.918716 336.687304,188.69614 336.687304,188.69614 C336.574238,189.162784 336.574238,189.728116 336.687304,190.166657 C336.80037,191.397317 337.365703,192.57177 338.383954,193.125338 C339.0617,193.833801 340.080605,194.274303 341.211923,194.24816 C346.753486,194.359919 352.974102,189.524204 356.932735,185.192387 C357.89282,184.203545 358.933946,183.06177 360.015594,181.827189 C359.62803,182.870276 359.244389,183.91271 358.856172,184.95645 C358.064707,186.863548 358.856172,189.367349 360.100557,190.4588 C363.832403,193.733152 370.392872,190.099994 373.673106,186.86943 C370.845138,186.990339 371.298057,183.881339 371.976456,182.214098 C374.238439,175.942505 376.500421,169.78267 378.762404,163.624143 L381.476653,156.165025 L383.739289,150.11891 C385.662072,148.63859 393.466272,142.590514 397.651038,139.475632 C401.383538,136.868568 399.233968,141.882705 398.66929,143.535567 C394.031604,156.206853 389.281506,169.005584 384.530754,181.803661 L384.64382,181.789936 C383.739289,183.710759 384.64382,186.200835 385.888205,187.292286 C389.620052,190.566638 396.067454,186.947858 399.460755,183.703569 C396.520373,183.838203 397.085706,180.714824 397.651038,179.061963 C399.913021,172.789715 402.175003,166.630534 404.550706,160.457629 L407.491087,152.292662 L409.753724,146.132828 C412.694105,143.849277 418.801001,139.141007 422.420435,136.433948 C423.551753,135.73006 424.456938,135.279101 424.909204,135.337269 C425.813735,135.452296 423.551753,140.140959 423.212553,141.313452 C418.461801,153.772983 413.82477,165.992003 409.074671,178.337814 C407.264301,182.744792 411.223588,185.877975 415.069154,185.293035 C427.05812,183.368291 442.779586,164.246335 446.625152,154.273613 L442.779586,154.745485 Z" id="Logo"></path>
            </g>
        </g>
    </g>
</svg>